<svg t="1776758036444" class="icon" viewBox="0 0 1024 1024" version="1.1" xmlns="http://www.w3.org/2000/svg" p-id="14961" width="32" height="32">
	<path d="M512.004 860.8c17.497 0 31.713 14.042 31.996 31.471l0.004 0.53V960c0 17.673-14.327 32-32 32-17.496 0-31.713-14.042-31.995-31.47l-0.005-0.53v-67.2c0-17.673 14.327-32 32-32zM265.356 758.643c12.371 12.371 12.495 32.353 0.37 44.877l-0.37 0.377-47.52 47.518c-12.496 12.497-32.757 12.497-45.254 0-12.372-12.372-12.495-32.354-0.37-44.878l0.37-0.377 47.519-47.518c12.497-12.497 32.758-12.496 45.255 0z m538.172-0.372l0.378 0.371 47.518 47.518c12.497 12.497 12.497 32.758 0 45.255-12.372 12.372-32.353 12.496-44.877 0.371l-0.378-0.37-47.518-47.519c-12.497-12.496-12.497-32.758 0-45.255 12.371-12.371 32.353-12.495 44.877-0.37zM512.004 224c159.06 0 288.003 128.942 288.003 287.999 0 159.057-128.944 288-288.003 288s-288.002-128.943-288.002-288 128.943-288 288.002-288zM131.201 479.999c17.673 0 32 14.327 32 32 0 17.496-14.042 31.713-31.471 31.996l-0.53 0.004H64c-17.673 0-32-14.327-32-32 0-17.496 14.042-31.713 31.47-31.996L64 480h67.2z m828.799 0c17.673 0 32 14.327 32 32 0 17.496-14.042 31.713-31.47 31.996l-0.53 0.004h-67.2c-17.674 0-32-14.327-32-32 0-17.496 14.041-31.713 31.47-31.996l0.53-0.004H960zM851.424 172.59c12.372 12.372 12.496 32.354 0.371 44.878l-0.371 0.377-47.518 47.518c-12.497 12.497-32.758 12.497-45.255 0-12.372-12.372-12.496-32.354-0.371-44.878l0.37-0.377 47.52-47.518c12.496-12.497 32.757-12.497 45.254 0z m-633.964-0.371l0.377 0.371 47.518 47.518c12.497 12.497 12.497 32.758 0 45.255-12.371 12.372-32.353 12.496-44.877 0.371l-0.377-0.37-47.519-47.519c-12.497-12.497-12.497-32.758 0-45.255 12.372-12.372 32.354-12.496 44.878-0.371zM512.004 32c17.497 0 31.713 14.042 31.996 31.47l0.004 0.53v67.2c0 17.673-14.327 32-32 32-17.496 0-31.713-14.042-31.995-31.471l-0.005-0.53V64c0-17.673 14.327-32 32-32z" p-id="14962" fill="#ffffff">
	</path>
</svg>
